<svg width="1328" height="138" viewBox="0 0 1328 138" fill="none" xmlns="http://www.w3.org/2000/svg">
<path d="M140.067 137.378H216.844L152.163 0H64.4103L0 137.378H77.9236L84.2358 123.902H133.587L140.054 137.378H140.067ZM97.8908 94.2661L108.892 70.8784L119.455 94.241H97.8908V94.2661Z" fill="black"/>
<path d="M914.252 137.378H991.029L926.348 0H838.596L774.186 137.378H852.109L858.421 123.902H907.773L914.239 137.378H914.252ZM872.076 94.2661L883.078 70.8784L893.641 94.241H872.076V94.2661Z" fill="black"/>
<path d="M686.152 0V80.9411H671.428V0H586.406V137.378H671.428V110.765H686.152V137.378H771.174V0H686.152Z" fill="black"/>
<path d="M551.935 0H400.52V137.378H481.895V110.991H551.343C563.8 110.991 574.556 100.552 574.556 88.3941V21.7943C574.556 10.941 564.366 0 551.948 0H551.935ZM496.684 75.6086C496.684 78.5948 493.683 81.0791 490.926 81.0791H481.741V29.6487H490.874C493.876 29.6487 496.684 32.0703 496.684 35.0941V75.6086Z" fill="black"/>
<path d="M1090.98 88.0553V101.732C1090.98 104.931 1088.45 107.541 1085.16 107.541H1079.13L1079.05 0H994.033V137.378H1164.55V88.0428H1091L1090.98 88.0553Z" fill="black"/>
<path d="M365.437 0.00684974H237.338C225.834 -0.00569733 213.854 8.53885 213.854 22.5539V60.7848C213.854 72.3658 225.911 82.4912 237.17 82.4912H300.279C303.551 82.4912 305.999 85.3018 305.999 88.1123V107.309L299.635 107.334C296.312 107.334 293.851 104.474 293.851 101.764V93.9593H213.931V115.741C213.931 127.824 225.422 137.372 237.698 137.372H365.462C378.641 137.372 388.663 127.661 388.663 115.402V75.2641C388.663 63.8589 378.113 53.0809 365.669 53.0809H306.128C302.598 53.0809 300.215 50.3206 300.215 46.9956V29.7434L307.055 29.6054C310.263 29.6054 312.826 32.0771 312.826 35.2014V35.2892L312.981 41.5251L388.895 41.3871L388.753 21.5125C388.766 9.98177 377.868 0.00684974 365.437 0.00684974Z" fill="black"/>
<path d="M1119.54 0V49.2723H1173.29V35.3325C1173.29 32.0954 1176.01 29.6487 1179.2 29.6487H1185.15V137.378H1262.87V29.6487H1268.92C1271.95 29.6487 1274.72 32.2083 1274.72 35.3074V49.2723H1328V0H1119.56H1119.54Z" fill="black"/>
</svg>
