<svg width="611" height="64" viewBox="0 0 611 64" fill="none" xmlns="http://www.w3.org/2000/svg">
<path d="M64.3848 63.1488H99.677L69.9451 0H29.6076L0 63.1488H35.8193L38.7209 56.9545H61.4062L64.3788 63.1488H64.3848ZM44.9977 43.3315L50.0547 32.5808L54.9103 43.32H44.9977V43.3315Z" fill="white"/>
<path d="M420.252 63.1488H455.544L425.812 0H385.475L355.867 63.1488H391.686L394.588 56.9545H417.273L420.246 63.1488H420.252ZM400.865 43.3315L405.922 32.5808L410.778 43.32H400.865V43.3315Z" fill="white"/>
<path d="M315.403 0V37.2064H308.635V0H269.553V63.1488H308.635V50.9158H315.403V63.1488H354.485V0H315.403Z" fill="white"/>
<path d="M253.703 0H184.102V63.1488H221.508V51.0197H253.431C259.157 51.0197 264.101 46.2211 264.101 40.6323V10.0182C264.101 5.0293 259.417 0 253.709 0H253.703ZM228.306 34.7552C228.306 36.1279 226.926 37.2698 225.659 37.2698H221.437V13.6287H225.635C227.015 13.6287 228.306 14.7418 228.306 16.1318V34.7552Z" fill="white"/>
<path d="M501.491 40.4766V46.7632C501.491 48.2339 500.325 49.4336 498.815 49.4336H496.043L496.008 0H456.926V63.1488H535.309V40.4708H501.497L501.491 40.4766Z" fill="white"/>
<path d="M167.983 0.00391259H109.1C103.812 -0.00185495 98.3047 3.92584 98.3047 10.3682V27.9419C98.3047 33.2653 103.847 37.9197 109.023 37.9197H138.032C139.536 37.9197 140.661 39.2116 140.661 40.5036V49.3279L137.736 49.3394C136.208 49.3394 135.077 48.0244 135.077 46.7787V43.1912H98.3402V53.2037C98.3402 58.7578 103.622 63.1469 109.265 63.1469H167.995C174.053 63.1469 178.66 58.6829 178.66 53.048V34.5976C178.66 29.3549 173.81 24.4006 168.09 24.4006H140.721C139.098 24.4006 138.003 23.1317 138.003 21.6033V13.673L141.147 13.6095C142.621 13.6095 143.8 14.7457 143.8 16.1819V16.2222L143.871 19.0887L178.766 19.0253L178.701 9.88947C178.707 4.58911 173.698 0.00391259 167.983 0.00391259Z" fill="white"/>
<path d="M514.617 0V22.6491H539.322V16.2414C539.322 14.7534 540.571 13.6287 542.04 13.6287H544.776V63.1488H580.5V13.6287H583.283C584.675 13.6287 585.948 14.8053 585.948 16.2299V22.6491H610.439V0H514.623H514.617Z" fill="white"/>
</svg>
